<svg width="25" height="25" viewBox="0 0 25 25" fill="none" xmlns="http://www.w3.org/2000/svg">
<path d="M12.58 0.820312C5.89798 0.820312 0.481689 6.21514 0.481689 12.8706C0.481689 18.839 4.84301 23.7825 10.5624 24.7398V15.3848H7.64424V12.0182H10.5624V9.53569C10.5624 6.655 12.3288 5.08529 14.9078 5.08529C16.1432 5.08529 17.2054 5.17728 17.5142 5.21753V8.2276L15.7247 8.22903C14.3219 8.22903 14.052 8.89314 14.052 9.86775V12.0168H17.3988L16.9615 15.3833H14.052V24.8203C20.0384 24.0944 24.6782 19.0259 24.6782 12.8677C24.6782 6.21514 19.2605 0.820312 12.58 0.820312Z" fill="white"/>
</svg>
