<svg width="26" height="25" viewBox="0 0 26 25" fill="none" xmlns="http://www.w3.org/2000/svg">
<path d="M15.3113 12.8203C15.3113 14.0887 14.2744 15.1172 12.9956 15.1172C11.7168 15.1172 10.6799 14.0887 10.6799 12.8203C10.6799 11.5519 11.7168 10.5234 12.9956 10.5234C14.2744 10.5234 15.3113 11.5519 15.3113 12.8203Z" fill="white"/>
<path d="M18.4111 8.75621C18.2996 8.45715 18.1223 8.18621 17.8912 7.96402C17.6672 7.73527 17.3941 7.55902 17.0926 7.4484C16.8478 7.35418 16.4801 7.24168 15.8029 7.21121C15.0704 7.17793 14.8506 7.1709 12.9957 7.1709C11.1408 7.1709 10.921 7.17793 10.1885 7.21121C9.51131 7.24215 9.14316 7.35418 8.89883 7.4484C8.59685 7.55902 8.32416 7.7348 8.10016 7.96402C7.86953 8.18621 7.69184 8.45715 7.58031 8.75621C7.48532 8.99902 7.3719 9.36371 7.34118 10.0359C7.30763 10.7625 7.30054 10.9804 7.30054 12.8203C7.30054 14.6601 7.30763 14.8781 7.34118 15.6046C7.3719 16.2764 7.48532 16.6411 7.58031 16.8839C7.69184 17.1834 7.86906 17.4539 8.10016 17.6761C8.32416 17.9048 8.59732 18.0811 8.89883 18.1917C9.14363 18.2864 9.51131 18.3984 10.189 18.4289C10.9215 18.4621 11.1408 18.4692 12.9962 18.4692C14.8516 18.4692 15.0713 18.4621 15.8033 18.4289C16.4806 18.3984 16.8487 18.2859 17.0935 18.1917C17.6994 17.9596 18.1781 17.4848 18.412 16.8839C18.507 16.6411 18.6204 16.2764 18.6512 15.6046C18.6847 14.8781 18.6918 14.6601 18.6918 12.8203C18.6918 10.9804 18.6847 10.7625 18.6512 10.0359C18.6195 9.36418 18.5066 8.99902 18.4111 8.75621ZM12.9957 16.3584C11.0255 16.3584 9.42813 14.7745 9.42813 12.8203C9.42813 10.8661 11.0255 9.28215 12.9957 9.28215C14.9659 9.28215 16.5628 10.8661 16.5628 12.8203C16.5628 14.7745 14.9659 16.3584 12.9957 16.3584ZM16.7041 9.96887C16.2438 9.96887 15.8705 9.59855 15.8705 9.14199C15.8705 8.68543 16.2438 8.31512 16.7041 8.31512C17.1644 8.31512 17.5377 8.68543 17.5377 9.14199C17.5377 9.59855 17.1644 9.96887 16.7041 9.96887Z" fill="white"/>
<path d="M12.9957 0.820312C6.31522 0.820312 0.897461 6.19406 0.897461 12.8203C0.897461 19.4466 6.31522 24.8203 12.9957 24.8203C19.6762 24.8203 25.094 19.4466 25.094 12.8203C25.094 6.19406 19.6762 0.820312 12.9957 0.820312ZM19.9007 15.6614C19.8672 16.395 19.7495 16.8956 19.5779 17.3339C19.2169 18.2597 18.4792 18.9914 17.5463 19.3491C17.1044 19.5192 16.5992 19.6359 15.8601 19.6692C15.1191 19.703 14.8828 19.7109 12.9957 19.7109C11.1087 19.7109 10.8724 19.703 10.1314 19.6692C9.39224 19.6359 8.88704 19.5192 8.44517 19.3491C7.98156 19.1761 7.56143 18.9047 7.21455 18.5541C6.86105 18.21 6.5879 17.7933 6.41351 17.3334C6.24196 16.8952 6.12429 16.3941 6.09074 15.6609C6.05671 14.9264 6.04868 14.6916 6.04868 12.8203C6.04868 10.9491 6.05671 10.7142 6.09074 9.97922C6.12429 9.24562 6.24196 8.745 6.41351 8.30672C6.5879 7.84688 6.86153 7.43016 7.21502 7.08609C7.5619 6.73547 7.98203 6.46406 8.44564 6.29109C8.88751 6.12094 9.39271 6.00422 10.1318 5.97094C10.8729 5.93766 11.1092 5.92922 12.9962 5.92922C14.8832 5.92922 15.1195 5.93719 15.8606 5.97094C16.6002 6.00422 17.1049 6.12094 17.5468 6.29062C18.0104 6.46359 18.4305 6.735 18.7774 7.08563C19.1309 7.42969 19.4045 7.84641 19.5784 8.30625C19.7504 8.74453 19.8676 9.24563 19.9017 9.97875C19.9352 10.7137 19.9432 10.9481 19.9432 12.8198C19.9432 14.6916 19.9347 14.9264 19.9007 15.6614Z" fill="white"/>
</svg>
