<svg width="16" height="22" viewBox="0 0 16 22" fill="none" xmlns="http://www.w3.org/2000/svg">
<path fill-rule="evenodd" clip-rule="evenodd" d="M7.8678 5.43848C9.56135 5.43848 10.892 6.77374 10.892 8.35177C10.892 9.92981 9.56135 11.2651 7.8678 11.2651C6.29522 11.2651 5.08554 9.92981 5.08554 8.35177C5.08554 6.77374 6.29522 5.43848 7.8678 5.43848ZM15.4888 7.62345C15.4888 3.61767 12.1017 0.34021 7.98877 0.34021C3.87587 0.34021 0.48877 3.61767 0.48877 7.62345C0.48877 7.74483 0.48877 7.98761 0.48877 8.23038C0.48877 12.1148 7.8678 21.2188 7.8678 21.2188C7.8678 21.2188 15.3678 12.1148 15.3678 8.23038H15.2468C15.4888 7.98761 15.4888 7.74483 15.4888 7.62345Z" fill="#E7A925"/>
</svg>
