<svg width="19" height="15" viewBox="0 0 19 15" fill="none" xmlns="http://www.w3.org/2000/svg">
<path fill-rule="evenodd" clip-rule="evenodd" d="M1.86745 1.65822C0.98877 2.5369 0.98877 3.95111 0.98877 6.77954V8.77954C0.98877 11.608 0.98877 13.0222 1.86745 13.9009C2.74613 14.7795 4.16034 14.7795 6.98877 14.7795H12.9888C15.8172 14.7795 17.2314 14.7795 18.1101 13.9009C18.9888 13.0222 18.9888 11.608 18.9888 8.77954V6.77954C18.9888 3.95111 18.9888 2.5369 18.1101 1.65822C17.2314 0.779541 15.8172 0.779541 12.9888 0.779541H6.98877C4.16034 0.779541 2.74613 0.779541 1.86745 1.65822ZM4.54347 3.94749C4.08394 3.64114 3.46307 3.76531 3.15672 4.22484C2.85037 4.68437 2.97454 5.30524 3.43407 5.61159L8.87937 9.24179C9.55117 9.68966 10.4264 9.68966 11.0982 9.24179L16.5435 5.61159C17.003 5.30524 17.1272 4.68437 16.8208 4.22484C16.5145 3.76531 15.8936 3.64114 15.4341 3.94749L9.98877 7.57769L4.54347 3.94749Z" fill="#E7A925"/>
</svg>
