<svg width="23" height="21" viewBox="0 0 23 21" fill="none" xmlns="http://www.w3.org/2000/svg">
<path fill-rule="evenodd" clip-rule="evenodd" d="M21.3924 14.7737C20.7951 14.475 18.2071 13.181 17.7094 12.9819C17.2117 12.7828 16.8135 12.6833 16.5149 13.2805C16.1167 13.7782 15.1213 15.0723 14.8227 15.3709C14.5241 15.7691 14.2254 15.7691 13.6282 15.4704C13.1305 15.1718 11.3387 14.6741 9.24838 12.7828C7.65572 11.3893 6.56077 9.59752 6.26215 9.09982C5.96353 8.60211 6.26215 8.30349 6.46123 8.00487C6.66031 7.80579 6.95894 7.40762 7.25756 7.109C7.3571 7.00946 7.3571 6.90992 7.45664 6.81038C7.55618 6.6113 7.65572 6.41221 7.75527 6.21313C7.95435 5.81497 7.85481 5.51634 7.75527 5.31726C7.65572 5.01864 6.56077 2.43057 6.06307 1.33562C5.6649 0.240669 5.1672 0.439751 4.86857 0.439751C4.56995 0.439751 4.17179 0.34021 3.87316 0.34021C3.475 0.34021 2.87775 0.439751 2.38005 1.037C1.88234 1.5347 0.48877 2.92828 0.48877 5.51634C0.48877 6.11359 0.588311 6.81038 0.787393 7.30808C1.38464 9.19936 2.47959 10.792 2.67867 11.0906C2.9773 11.4888 6.46123 17.0631 11.936 19.253C17.5103 21.4429 17.5103 20.6466 18.5057 20.547C19.5011 20.4475 21.691 19.253 22.1887 17.959C22.6864 16.6649 22.6864 15.6695 22.4873 15.3709C22.2883 15.1718 21.9896 15.0723 21.3924 14.7737Z" fill="#613F1B"/>
</svg>
